#!OML:ASF E:\Style4\Style4.ASF
:FULLY-SPECIFIED
:DEGREES
1766
root -1.66268 17.4577 -1.43113 9.67073 3.55769 -21.6408
lowerback 9.41135 3.42004 -14.6728
upperback 2.32133 2.75442 -8.87885
thorax -3.0695 1.41598 -1.58378
lowerneck 2.35807 -3.8271 -7.93437
upperneck 6.02561 -5.06762 -0.714838
head 1.68879 -2.68125 1.06546
rclavicle -1.59028e-014 3.18055e-015
rhumerus -80.8267 54.2085 -127.324
rradius 77.3144
rwrist 1.2514
rhand -6.45765 34.3524
rfingers 7.12502
rthumb 19.3924 5.29934
lclavicle -1.59028e-014 3.18055e-015
lhumerus -26.3536 25.7742 21.1434
lradius 105.493
lwrist -11.717
lhand -7.85282 37.0176
lfingers 7.12502
lthumb 18.0504 66.2
rfemur -11.4818 -9.22408 48.4074
rtibia 12.1404
rfoot -12.3733 -2.59171
rtoes -1.49288
lfemur -30.0423 3.13265 12.4847
ltibia 47.0139
lfoot -24.1586 4.02184
ltoes -22.4482
1767
root -1.65653 17.4615 -1.42843 9.69274 3.52892 -21.669
lowerback 9.33196 3.42945 -14.6186
upperback 2.36614 2.79749 -8.85164
thorax -2.97919 1.43143 -1.58191
lowerneck 2.21959 -3.87021 -7.97942
upperneck 6.08936 -5.11296 -0.662644
head 1.73869 -2.70632 1.08605
rclavicle -5.725e-014 -1.04958e-013
rhumerus -80.7621 54.3135 -127.263
rradius 77.2765
rwrist 1.26431
rhand -6.48338 34.3224
rfingers 7.12502
rthumb 19.3676 5.26691
lclavicle -5.725e-014 -1.04958e-013
lhumerus -26.3252 25.8568 21.1588
lradius 105.519
lwrist -11.7937
lhand -7.94378 37.0151
lfingers 7.12502
lthumb 17.9629 66.2055
rfemur -11.4103 -9.24482 48.417
rtibia 12.0277
rfoot -12.3502 -2.53588
rtoes -1.53465
lfemur -30.0288 3.14922 12.4902
ltibia 46.997
lfoot -24.1747 4.05448
ltoes -22.3483
1768
root -1.65025 17.465 -1.42522 9.66227 3.43288 -21.6332
lowerback 9.31347 3.48815 -14.6268
upperback 2.3894 2.8795 -8.86614
thorax -2.94998 1.46903 -1.6024
lowerneck 2.12465 -3.9088 -7.93974
upperneck 6.17323 -5.1546 -0.629864
head 1.78388 -2.72847 1.08659
rclavicle -5.725e-014 6.36111e-014
rhumerus -80.706 54.2941 -127.241
rradius 77.224
rwrist 1.24602
rhand -6.4225 34.2773
rfingers 7.12502
rthumb 19.4262 5.22766
lclavicle -5.725e-014 6.36111e-014
lhumerus -26.2467 25.8739 21.1754
lradius 105.563
lwrist -11.7941
lhand -7.93985 37.0354
lfingers 7.12502
lthumb 17.9667 66.2256
rfemur -11.2553 -9.19041 48.331
rtibia 11.9004
rfoot -12.2901 -2.5114
rtoes -1.49404
lfemur -29.9133 3.16146 12.4134
ltibia 46.9828
lfoot -24.1961 4.16959
ltoes -22.8548
1769
root -1.64497 17.4659 -1.42614 9.69984 3.3841 -21.6402
lowerback 9.28323 3.51128 -14.6072
upperback 2.37409 2.91529 -8.86663
thorax -2.95175 1.48677 -1.61697
lowerneck 2.11314 -3.91635 -7.95183
upperneck 6.16828 -5.16849 -0.543734
head 1.78818 -2.73449 1.11591
rclavicle -1.59028e-014 -7.63333e-014
rhumerus -80.7193 54.32 -127.297
rradius 77.1868
rwrist 1.31499
rhand -6.47228 34.1592
rfingers 7.12502
rthumb 19.3783 5.10474
lclavicle -1.59028e-014 -7.63333e-014
lhumerus -26.1951 25.8763 21.1592
lradius 105.592
lwrist -11.8092
lhand -7.97284 37.1025
lfingers 7.12502
lthumb 17.935 66.2955
rfemur -11.2249 -9.07316 48.3162
rtibia 11.8041
rfoot -12.2119 -2.58097
rtoes -1.50733
lfemur -29.9229 3.18173 12.393
ltibia 46.9855
lfoot -24.1687 4.26789
ltoes -23.1752
1770
root -1.64113 17.4646 -1.42929 9.74878 3.41266 -21.6911
lowerback 9.27212 3.49276 -14.5449
upperback 2.3626 2.89893 -8.84275
thorax -2.95525 1.47923 -1.62152
lowerneck 2.15999 -3.90975 -8.01746
upperneck 6.10155 -5.17246 -0.425688
head 1.76478 -2.7344 1.16652
rclavicle -3.49861e-014 8.90555e-014
rhumerus -80.739 54.3899 -127.337
rradius 77.1727
rwrist 1.50056
rhand -6.71715 34.1713
rfingers 7.12502
rthumb 19.1428 5.09338
lclavicle -3.49861e-014 8.90555e-014
lhumerus -26.1952 25.8883 21.1044
lradius 105.601
lwrist -11.7907
lhand -8.02695 37.069
lfingers 7.12502
lthumb 17.8829 66.2668
rfemur -11.2749 -9.04496 48.3692
rtibia 11.7674
rfoot -12.1801 -2.61629
rtoes -1.50923
lfemur -30.0129 3.18939 12.4398
ltibia 47.0034
lfoot -24.1124 4.35755
ltoes -23.5456
